<svg width="264" height="185" viewBox="0 0 264 185" fill="none" xmlns="http://www.w3.org/2000/svg">
<path d="M22.0215 82.7229C19.167 82.7229 16.8569 80.2814 16.8569 77.2645C16.8569 74.2476 19.167 71.8062 22.0215 71.8062C24.8761 71.8062 27.1862 74.2476 27.1862 77.2645C27.1862 80.2814 24.8596 82.7229 22.0215 82.7229ZM22.0215 73.4628C20.0415 73.4628 18.441 75.1544 18.441 77.2471C18.441 79.3397 20.0415 81.0313 22.0215 81.0313C24.0016 81.0313 25.6021 79.3397 25.6021 77.2471C25.6021 75.1719 23.9851 73.4628 22.0215 73.4628Z" fill="#237AFF"/>
<path d="M191.184 96.7436C191.333 96.7436 191.481 96.7436 191.63 96.7611V95.0869C191.481 95.0869 191.333 95.0869 191.184 95.0869C182.62 95.0869 175.657 102.446 175.657 111.497C175.657 120.548 182.62 127.907 191.184 127.907C191.333 127.907 191.481 127.907 191.63 127.907V126.233C191.481 126.233 191.333 126.233 191.184 126.233C183.495 126.233 177.241 119.623 177.241 111.497C177.241 103.353 183.495 96.7436 191.184 96.7436Z" fill="#237AFF"/>
<path d="M0.868652 29.2725V30.964C12.1219 32.4463 20.8506 42.6132 20.8506 54.9076C20.8506 67.2021 12.1054 77.369 0.868652 78.8513V80.5428C12.9964 79.0431 22.4346 68.1263 22.4346 54.9076C22.4346 41.689 12.9964 30.7722 0.868652 29.2725Z" fill="#237AFF"/>
<path d="M18.9009 161.398C18.9009 161.398 18.6081 175.474 22.3491 175.474C26.0902 175.474 25.7974 162.05 25.7974 162.05L18.9009 161.398Z" fill="#08289A"/>
<path d="M164.086 161.398C164.086 161.398 163.793 175.474 167.534 175.474C171.275 175.474 170.982 162.05 170.982 162.05L164.086 161.398Z" fill="#08289A"/>
<path d="M188.81 2.87695H0.780742C0.341573 2.87695 0 3.25688 0 3.74536V161.399V162.267H0.780742H189.591V3.74536C189.591 3.25688 189.249 2.87695 188.81 2.87695ZM188.029 160.53H1.56148V4.61377H188.029V160.53Z" fill="#08289A"/>
<path d="M189.591 0H0V20.9324H189.591V0Z" fill="#08289A"/>
<path d="M28.1882 15.1609H20.5434C20.1043 15.1609 19.7627 14.781 19.7627 14.2925V5.78931C19.7627 5.30083 20.1043 4.9209 20.5434 4.9209H28.1882C28.6274 4.9209 28.969 5.30083 28.969 5.78931V14.2925C28.969 14.781 28.6274 15.1609 28.1882 15.1609ZM21.3405 13.4241H27.4075V6.67582H21.3405V13.4241Z" fill="#D4F9BB"/>
<path d="M41.3304 9.73292H34.6128C34.1736 9.73292 33.832 9.35299 33.832 8.8645C33.832 8.37602 34.1736 7.99609 34.6128 7.99609H41.3304C41.7696 7.99609 42.1112 8.37602 42.1112 8.8645C42.1112 9.35299 41.7533 9.73292 41.3304 9.73292Z" fill="#D4F9BB"/>
<path d="M13.8737 14.3648C13.6785 14.3648 13.4671 14.2743 13.3207 14.1115L6.84702 6.91091C6.53797 6.56716 6.53797 6.02441 6.84702 5.68066C7.15606 5.33691 7.64403 5.33691 7.95307 5.68066L14.4267 12.8813C14.7358 13.225 14.7358 13.7678 14.4267 14.1115C14.2641 14.2743 14.0689 14.3648 13.8737 14.3648Z" fill="#D4F9BB"/>
<path d="M7.40005 14.3648C7.20486 14.3648 6.99341 14.2743 6.84702 14.1115C6.53797 13.7678 6.53797 13.225 6.84702 12.8813L13.3207 5.68066C13.6297 5.33691 14.1177 5.33691 14.4267 5.68066C14.7358 6.02441 14.7358 6.56716 14.4267 6.91091L7.95307 14.1115C7.79042 14.2743 7.59523 14.3648 7.40005 14.3648Z" fill="#D4F9BB"/>
<path d="M161.709 52.6514H42.3042V131.075H161.709V52.6514Z" fill="#237AFF"/>
<path d="M56.5921 108.68C54.7113 108.68 53.1782 107.147 53.1782 105.266C53.1782 103.385 54.7113 101.852 56.5921 101.852C58.4728 101.852 60.0059 103.385 60.0059 105.266C60.0059 107.147 58.4728 108.68 56.5921 108.68ZM56.5921 103.369C55.5489 103.369 54.6955 104.223 54.6955 105.266C54.6955 106.309 55.5489 107.162 56.5921 107.162C57.6352 107.162 58.4886 106.309 58.4886 105.266C58.4886 104.223 57.6352 103.369 56.5921 103.369Z" fill="white"/>
<path d="M66.8333 108.68C64.9525 108.68 63.4194 107.147 63.4194 105.266C63.4194 103.385 64.9525 101.852 66.8333 101.852C68.714 101.852 70.2471 103.385 70.2471 105.266C70.2471 107.147 68.7298 108.68 66.8333 108.68ZM66.8333 103.369C65.7901 103.369 64.9367 104.223 64.9367 105.266C64.9367 106.309 65.7901 107.162 66.8333 107.162C67.8764 107.162 68.7298 106.309 68.7298 105.266C68.7298 104.223 67.8922 103.369 66.8333 103.369Z" fill="white"/>
<path d="M82.6536 108.68C80.7728 108.68 79.2397 107.147 79.2397 105.266C79.2397 103.385 80.7728 101.852 82.6536 101.852C84.5344 101.852 86.0674 103.385 86.0674 105.266C86.0674 107.147 84.5344 108.68 82.6536 108.68ZM82.6536 103.369C81.6105 103.369 80.757 104.223 80.757 105.266C80.757 106.309 81.6105 107.162 82.6536 107.162C83.6967 107.162 84.5502 106.309 84.5502 105.266C84.5502 104.223 83.6967 103.369 82.6536 103.369Z" fill="white"/>
<path d="M106.614 114.132C97.0837 114.132 89.292 121.655 88.8652 131.075H90.3825C90.8092 122.493 97.9372 115.65 106.614 115.65C115.291 115.65 122.419 122.493 122.846 131.075H124.363C123.936 121.655 116.144 114.132 106.614 114.132Z" fill="white"/>
<path d="M75.067 91.7365H54.5682C54.1415 91.7365 53.8096 91.4046 53.8096 90.9779C53.8096 90.5512 54.1415 90.2192 54.5682 90.2192H75.0512C75.4779 90.2192 75.8098 90.5512 75.8098 90.9779C75.8256 91.3888 75.4779 91.7365 75.067 91.7365Z" fill="#D4F9BB"/>
<path d="M69.7408 84.5295H54.5682C54.1415 84.5295 53.8096 84.1975 53.8096 83.7708C53.8096 83.3441 54.1415 83.0122 54.5682 83.0122H69.7408C70.1675 83.0122 70.4994 83.3441 70.4994 83.7708C70.4994 84.1975 70.1675 84.5295 69.7408 84.5295Z" fill="#D4F9BB"/>
<path d="M64.5891 124.595L56.6235 116.629C55.9281 115.934 54.8534 117.009 55.5488 117.704L63.5144 125.67C64.2098 126.349 65.2846 125.29 64.5891 124.595Z" fill="white"/>
<path d="M56.6235 125.67L64.5891 117.704C65.2846 117.009 64.2098 115.934 63.5144 116.629L55.5488 124.595C54.8534 125.275 55.9281 126.349 56.6235 125.67Z" fill="white"/>
<path d="M183.083 136.197C183.083 136.197 176.487 130.466 173.784 130.034C171.081 129.601 174.216 143.874 174.216 143.874L167.729 154.903C167.585 155.119 168.396 156.507 168.99 157.444C169.062 157.462 169.116 157.48 169.189 157.498C170.684 158.201 172.577 157.877 174.18 158.093C174.775 158.165 174.829 158.796 174.523 159.192L178.253 162.76H194.473V147.01L183.083 136.197Z" fill="white"/>
<path d="M190.869 175.033C190.652 175.033 190.436 174.943 190.256 174.781L178.938 163.607C178.596 163.265 178.596 162.724 178.938 162.382C179.281 162.039 179.821 162.039 180.164 162.382L191.481 173.555C191.824 173.898 191.824 174.438 191.481 174.781C191.319 174.943 191.103 175.033 190.869 175.033Z" fill="#201000"/>
<path d="M148.479 109.738C168.508 97.5996 174.904 71.5235 162.766 51.4953C150.627 31.4671 124.551 25.0711 104.523 37.2093C84.4948 49.3475 78.0988 75.4236 90.237 95.4518C102.375 115.48 128.451 121.876 148.479 109.738Z" fill="#D4F9BB"/>
<path d="M148.348 98.671L138.731 104.5L175.505 165.176L185.122 159.348L148.348 98.671Z" fill="#D4F9BB"/>
<path d="M158.667 115.684L149.05 121.512L171.925 159.256L181.542 153.428L158.667 115.684Z" fill="#201000"/>
<path d="M143.996 102.339C159.938 92.6773 165.03 71.9206 155.367 55.9781C145.705 40.0355 124.949 34.9442 109.006 44.6063C93.0636 54.2684 87.9723 75.0251 97.6344 90.9676C107.297 106.91 128.053 112.001 143.996 102.339Z" fill="white"/>
<path d="M131.001 84.2589C130.713 84.2589 130.424 84.1147 130.262 83.8444L117.251 62.3809C116.998 61.9664 117.125 61.4437 117.539 61.1914C117.954 60.9391 118.476 61.0833 118.729 61.4798L131.74 82.9433C131.992 83.3578 131.866 83.8804 131.452 84.1327C131.308 84.2228 131.145 84.2589 131.001 84.2589Z" fill="#FF543E"/>
<path d="M132.389 85.7186C131.073 86.5115 132.317 88.548 133.614 87.755C134.93 86.9621 133.704 84.9257 132.389 85.7186Z" fill="#FF543E"/>
<path d="M103.681 69.9683C102.239 69.3916 100.798 68.815 99.356 68.2563C98.3287 67.8418 97.8782 69.5178 98.8874 69.9323C100.329 70.509 101.771 71.0676 103.213 71.6443C104.258 72.0588 104.708 70.3828 103.681 69.9683Z" fill="#D4F9BB"/>
<path d="M177.461 146.054C170.541 143.027 171.406 136.107 171.406 136.107C165.35 134.376 160.593 134.809 160.16 130.916C159.854 128.231 164.053 127.799 169.243 128.97C171.586 129.493 174.181 129.871 176.596 131.349" fill="white"/>
<path d="M213.702 166.815C213.485 166.815 213.251 166.725 213.089 166.563C212.8 166.257 183.768 136.738 176.145 132.088C174.217 130.917 172.162 130.484 170.162 130.052C169.783 129.98 169.423 129.889 169.062 129.817C164.575 128.808 162.106 129.259 161.331 129.944C161.079 130.178 160.989 130.448 161.025 130.827C161.259 132.953 163.151 133.422 167.062 134.215C168.432 134.485 170 134.809 171.658 135.278C172.072 135.404 172.324 135.801 172.27 136.215C172.234 136.467 171.585 142.541 177.821 145.262C178.253 145.46 178.452 145.965 178.271 146.397C178.073 146.83 177.569 147.028 177.136 146.848C171.117 144.217 170.522 138.756 170.54 136.756C169.189 136.395 167.891 136.143 166.738 135.909C162.809 135.116 159.709 134.485 159.331 131.007C159.223 130.07 159.529 129.241 160.196 128.646C162.214 126.826 166.864 127.547 169.459 128.123C169.819 128.195 170.18 128.286 170.54 128.358C172.577 128.79 174.901 129.277 177.082 130.61C184.867 135.368 213.143 164.13 214.35 165.356C214.693 165.698 214.675 166.239 214.332 166.581C214.134 166.725 213.918 166.815 213.702 166.815Z" fill="#201000"/>
<path d="M166.936 134.719C165.044 133.782 156.484 133.583 154.177 136.881C152.663 139.044 154.393 141.639 156.556 141.855L167.152 138.611C167.152 138.611 169.531 136.016 166.936 134.719Z" fill="white"/>
<path d="M156.556 142.72C156.52 142.72 156.502 142.72 156.466 142.72C155.042 142.576 153.709 141.621 153.096 140.269C152.501 138.99 152.645 137.566 153.456 136.395C156.069 132.664 165.17 132.881 167.315 133.962C168.486 134.539 168.847 135.368 168.955 135.944C169.243 137.548 167.927 139.044 167.765 139.206C167.441 139.567 166.9 139.585 166.54 139.26C166.179 138.936 166.161 138.395 166.486 138.035C166.72 137.782 167.369 136.899 167.243 136.251C167.225 136.143 167.152 135.818 166.522 135.494C164.9 134.683 156.826 134.575 154.862 137.386C154.231 138.287 154.465 139.134 154.646 139.549C155.006 140.342 155.799 140.918 156.61 141.008C157.079 141.062 157.439 141.477 157.385 141.963C157.367 142.396 156.988 142.72 156.556 142.72Z" fill="#201000"/>
<path d="M169.748 139.477C167.855 138.54 159.295 138.342 156.988 141.64C155.475 143.802 157.205 146.397 159.367 146.614L169.964 143.37C169.964 143.37 172.343 140.775 169.748 139.477Z" fill="white"/>
<path d="M159.367 147.496C159.331 147.496 159.313 147.496 159.277 147.496C157.854 147.352 156.52 146.397 155.907 145.045C155.313 143.766 155.457 142.342 156.268 141.171C158.881 137.44 167.982 137.657 170.126 138.738C171.298 139.315 171.658 140.144 171.766 140.72C172.055 142.324 170.739 143.82 170.577 143.982C170.252 144.342 169.712 144.361 169.351 144.036C168.991 143.712 168.973 143.171 169.297 142.811C169.532 142.558 170.18 141.675 170.054 141.027C170.036 140.918 169.964 140.594 169.333 140.27C167.711 139.459 159.638 139.351 157.673 142.162C157.043 143.063 157.277 143.91 157.457 144.324C157.818 145.117 158.611 145.694 159.421 145.784C159.89 145.838 160.25 146.253 160.196 146.739C160.178 147.154 159.8 147.496 159.367 147.496Z" fill="#201000"/>
<path d="M173.208 144.667C171.315 143.73 162.755 143.532 160.448 146.83C158.935 148.992 160.665 151.587 162.827 151.803L173.424 148.56C173.424 148.578 175.803 145.983 173.208 144.667Z" fill="white"/>
<path d="M162.827 152.687C162.791 152.687 162.773 152.687 162.737 152.687C161.314 152.543 159.98 151.588 159.367 150.236C158.773 148.957 158.917 147.533 159.728 146.362C162.341 142.613 171.442 142.847 173.586 143.929C174.758 144.505 175.118 145.334 175.226 145.911C175.514 147.515 174.199 149.011 174.037 149.173C173.712 149.533 173.172 149.551 172.811 149.227C172.451 148.903 172.433 148.362 172.757 148.001C172.991 147.749 173.64 146.866 173.514 146.217C173.496 146.109 173.424 145.785 172.793 145.46C171.171 144.649 163.098 144.541 161.133 147.353C160.503 148.254 160.737 149.101 160.917 149.515C161.278 150.308 162.07 150.885 162.881 150.975C163.35 151.029 163.71 151.444 163.656 151.93C163.638 152.345 163.26 152.687 162.827 152.687Z" fill="#201000"/>
<path d="M176.884 150.741C175.929 147.515 165.206 148.578 163.476 151.822C161.566 155.408 165.386 157.715 170.342 158.021L168.666 154.849C168.9 154.219 177.821 153.858 176.884 150.741Z" fill="white"/>
<path d="M170.342 158.868C170.324 158.868 170.306 158.868 170.288 158.868C166.54 158.634 163.656 157.354 162.593 155.426C162.124 154.579 161.764 153.191 162.719 151.407C164.179 148.668 169.928 147.641 173.352 147.983C175.803 148.235 177.317 149.1 177.731 150.488C177.929 151.137 177.839 151.785 177.497 152.344C176.47 154.038 173.208 154.669 170.829 155.137C170.234 155.246 169.531 155.39 169.261 155.48C169.027 155.696 168.702 155.768 168.378 155.66C167.927 155.498 167.693 154.993 167.855 154.561C168.09 153.912 168.702 153.804 170.504 153.443C172.216 153.101 175.388 152.488 176.019 151.443C176.109 151.299 176.127 151.173 176.073 150.975C175.893 150.362 174.776 149.875 173.19 149.713C169.621 149.353 165.116 150.614 164.251 152.218C163.764 153.119 163.728 153.894 164.107 154.579C164.864 155.93 167.333 156.94 170.396 157.138C170.865 157.174 171.243 157.57 171.207 158.057C171.171 158.526 170.793 158.868 170.342 158.868Z" fill="#201000"/>
<path d="M180.056 41.3323C180.921 59.0653 175.298 78.5465 181.786 83.7367C188.274 88.9269 196.492 85.4667 196.492 85.4667L212.062 100.172C212.062 100.172 214.135 105.092 219.415 103.416C224.173 101.902 225.903 90.2244 225.903 90.2244L212.062 76.8165C212.062 76.8165 221.307 70.7432 220.28 53.4607C219.847 46.1079 216.297 39.0796 210.765 34.8626C201.7 27.9243 181.227 26.1222 180.056 41.3323Z" fill="white"/>
<path d="M217.342 104.641C214.117 104.641 212.116 102.298 211.359 100.694L196.311 86.4755C194.311 87.1784 187.175 89.1607 181.264 84.4211C176.794 80.8529 177.533 71.9683 178.452 60.7229C178.957 54.6857 179.516 47.8376 179.209 41.3859C179.209 41.3499 179.209 41.3138 179.209 41.2778C179.606 36.1417 182.165 32.3572 186.598 30.3748C194.275 26.9327 205.412 29.654 211.323 34.1593C217.036 38.5205 220.731 45.7111 221.181 53.4062C222.046 68.0756 215.757 74.8878 213.414 76.8881L226.551 89.6113C226.75 89.8095 226.84 90.0798 226.804 90.3501C226.624 91.5936 224.839 102.605 219.721 104.245C218.838 104.515 218.063 104.641 217.342 104.641ZM196.51 84.6013C196.726 84.6013 196.942 84.6914 197.104 84.8356L212.675 99.5411C212.765 99.6312 212.837 99.7213 212.873 99.8294C212.945 99.9916 214.729 104.01 219.163 102.587C222.497 101.523 224.425 93.9004 224.984 90.5304L211.468 77.4288C211.287 77.2486 211.179 76.9963 211.215 76.7259C211.233 76.4736 211.377 76.2213 211.594 76.0772C211.684 76.0231 220.406 70.0039 219.433 53.4783C219.018 46.2877 215.576 39.5657 210.26 35.5109C204.727 31.2939 194.167 28.843 187.283 31.9247C183.426 33.6547 181.282 36.8265 180.921 41.3318C181.228 47.8916 180.669 54.7758 180.164 60.8491C179.317 71.1573 178.578 80.0599 182.327 83.0515C188.346 87.8632 196.077 84.6914 196.167 84.6554C196.275 84.6373 196.384 84.6013 196.51 84.6013Z" fill="#201000"/>
<path d="M220.298 53.4607C219.866 46.1079 216.315 39.0796 210.783 34.8626C204.061 29.7445 191.103 27.4197 184.363 32.736C189.049 33.2046 193.446 35.0428 196.366 39.1517C199.573 43.639 200.691 49.478 201.177 55.2628C201.718 56.3081 202.205 57.3533 202.583 58.4166C204.457 63.5527 204.367 72.1669 209.215 75.7172C210.44 76.6002 211.107 77.5734 212.513 77.6995C214.621 75.8793 221.145 67.8598 220.298 53.4607Z" fill="#201000"/>
<path d="M179.191 51.2979C175.298 60.8132 172.487 64.4895 177.461 68.5984L179.191 51.2979Z" fill="white"/>
<path d="M177.461 69.4637C177.263 69.4637 177.065 69.3916 176.902 69.2654C172.181 65.3728 173.785 61.6604 176.704 54.9384C177.227 53.731 177.785 52.4154 178.38 50.9737C178.56 50.5232 179.065 50.3249 179.515 50.5051C179.966 50.6854 180.164 51.19 179.984 51.6405C179.389 53.1002 178.813 54.4338 178.29 55.6412C175.461 62.183 174.289 64.8862 178.002 67.9499C178.362 68.2562 178.416 68.7969 178.11 69.1753C177.966 69.3556 177.713 69.4637 177.461 69.4637Z" fill="#201000"/>
<path d="M186.779 50.5775C185.409 51.2443 184.057 51.9111 182.688 52.5779C181.697 53.0644 182.562 54.5602 183.553 54.0736C184.922 53.4069 186.274 52.7401 187.644 52.0733C188.653 51.5867 187.77 50.0909 186.779 50.5775Z" fill="#201000"/>
<path d="M184.417 46.9907C184.111 47.3331 183.769 47.4413 183.3 47.4052C182.832 47.3511 182.435 47.8377 182.435 48.2702C182.435 48.7748 182.832 49.0812 183.3 49.1353C184.165 49.2254 185.048 48.8649 185.643 48.2162C186.382 47.3872 185.156 46.1617 184.417 46.9907Z" fill="#201000"/>
<path d="M199.97 53.6765C207.755 47.4051 214.55 50.739 215.973 55.1903C218.352 62.5431 212.729 67.9495 201.484 67.9495" fill="white"/>
<path d="M201.483 68.8148C200.997 68.8148 200.618 68.4363 200.618 67.9497C200.618 67.4632 201.015 67.0847 201.483 67.0847C207.629 67.0847 212.188 65.4448 214.351 62.4892C215.756 60.5609 216.027 58.1281 215.162 55.4609C214.549 53.5867 212.873 52.0368 210.764 51.4241C207.665 50.505 204.006 51.5322 200.51 54.3616C200.132 54.6679 199.591 54.5959 199.285 54.2354C198.978 53.857 199.05 53.3163 199.411 53.01C204.763 48.7029 209.124 49.1354 211.251 49.7661C213.936 50.5591 216.009 52.5054 216.784 54.9383C217.829 58.1641 217.468 61.1376 215.72 63.5345C213.251 66.9225 208.187 68.8148 201.483 68.8148Z" fill="#201000"/>
<path d="M210.35 56.074C207.304 55.8758 204.384 57.6058 203.123 60.3811C202.654 61.3903 204.15 62.2734 204.619 61.2461C205.664 58.9754 207.863 57.6419 210.35 57.8041C211.449 57.8761 211.449 56.1461 210.35 56.074Z" fill="#201000"/>
<path d="M192.112 29.0415C187.247 29.0775 175.334 25.3291 175.893 33.5649C176.109 36.7727 179.155 38.6289 181.948 39.3317C187.553 40.7374 192.941 39.3678 195.987 45.441C197.14 47.7477 199.033 52.2891 202.132 52.5775C204.637 52.8118 205.232 49.2255 205.448 46.9908C206.151 39.9445 198.24 30.0867 192.112 29.0415Z" fill="#201000"/>
<path d="M185.907 71.3408C185.84 72.6734 184.681 73.6595 183.348 73.4329C182.509 73.2864 182.163 74.5656 183.002 74.7122C185.201 75.0853 187.133 73.5928 187.24 71.3408C187.28 70.488 185.947 70.488 185.907 71.3408Z" fill="#201000"/>
<path d="M214.242 173.303C213.774 173.303 213.395 172.925 213.377 172.456L211.214 100.208C211.196 99.7217 211.575 99.3252 212.061 99.3252C212.53 99.3252 212.945 99.6856 212.945 100.172L215.107 172.42C215.125 172.907 214.747 173.303 214.26 173.303H214.242Z" fill="#201000"/>
<path d="M263.135 184.116C262.666 184.116 262.287 183.737 262.269 183.269C262.269 183.124 261.783 168.563 257.512 130.988C253.313 94.0445 226.118 91.107 225.848 91.089C225.38 91.053 225.019 90.6204 225.073 90.1519C225.109 89.6833 225.542 89.3229 226.01 89.377C226.299 89.413 254.881 92.4766 259.242 130.808C263.531 168.491 264 183.088 264 183.233C264.018 183.701 263.639 184.116 263.153 184.116H263.135Z" fill="#201000"/>
<path d="M238.031 182.385C237.598 182.385 237.22 182.061 237.166 181.61L231.543 129.258C231.489 128.79 231.832 128.357 232.318 128.303C232.805 128.249 233.219 128.591 233.273 129.078L238.896 181.43C238.95 181.899 238.608 182.331 238.121 182.385C238.103 182.385 238.067 182.385 238.031 182.385Z" fill="#201000"/>
<path d="M248.627 162.436C241.49 162.436 235.489 158.507 235.399 158.453C235.003 158.183 234.895 157.66 235.165 157.246C235.435 156.849 235.958 156.741 236.372 157.012C236.931 157.39 250.177 165.986 259.926 155.84C260.251 155.498 260.809 155.48 261.152 155.822C261.494 156.147 261.512 156.705 261.17 157.048C257.223 161.12 252.736 162.436 248.627 162.436Z" fill="#201000"/>
<path d="M247.563 157.12C239.976 157.12 234.515 152.38 234.425 152.308C234.065 151.983 234.029 151.443 234.353 151.082C234.678 150.722 235.218 150.686 235.579 151.01C236.029 151.407 246.878 160.778 259.133 150.974C259.511 150.668 260.052 150.74 260.34 151.118C260.646 151.497 260.574 152.038 260.196 152.344C255.727 155.93 251.383 157.12 247.563 157.12Z" fill="#201000"/>
<path d="M175.209 14.2253C176.704 12.1605 179.784 11.6977 182.394 12.9996C182.448 10.4309 185.277 8.90891 188.576 9.63686C193.996 10.8386 197.667 16.1608 199.808 20.3116C200.356 21.3733 200.725 23.1996 201.821 23.9734C201.805 23.9642 204.54 24.3711 204.715 24.4376C207.043 25.1463 209.196 26.6882 210.819 28.4115C215.34 33.2172 215.07 39.1284 214.766 44.2372C214.712 45.1563 213.254 44.7931 212.939 43.9972C201.595 39.5567 190.066 36.3775 178.398 34.5685C177.531 34.4417 177.044 33.4979 177.592 33.06C177.517 32.9672 177.458 32.8836 177.404 32.7531C175.434 27.3661 171.946 18.6831 175.209 14.2253Z" fill="#201000"/>
</svg>
